<?xml version="1.0" encoding="UTF-8" standalone="no"?>
<!-- Created with Inkscape (http://www.inkscape.org/) -->

<svg
   xmlns:dc="http://purl.org/dc/elements/1.1/"
   xmlns:cc="http://creativecommons.org/ns#"
   xmlns:rdf="http://www.w3.org/1999/02/22-rdf-syntax-ns#"
   xmlns:svg="http://www.w3.org/2000/svg"
   xmlns="http://www.w3.org/2000/svg"
   xmlns:sodipodi="http://sodipodi.sourceforge.net/DTD/sodipodi-0.dtd"
   xmlns:inkscape="http://www.inkscape.org/namespaces/inkscape"
   width="500mm"
   height="255mm"
   viewBox="0 0 1771.6535 903.54331"
   id="svg4152"
   version="1.1"
   inkscape:version="0.91 r13725"
   sodipodi:docname="context.svg">
  <defs
     id="defs4154" />
  <sodipodi:namedview
     id="base"
     pagecolor="#ffffff"
     bordercolor="#666666"
     borderopacity="1.0"
     inkscape:pageopacity="0.0"
     inkscape:pageshadow="2"
     inkscape:zoom="0.35"
     inkscape:cx="1345.1801"
     inkscape:cy="159.27685"
     inkscape:document-units="px"
     inkscape:current-layer="layer1"
     showgrid="false"
     inkscape:window-width="1280"
     inkscape:window-height="1002"
     inkscape:window-x="1272"
     inkscape:window-y="-8"
     inkscape:window-maximized="1"
     fit-margin-top="0"
     fit-margin-left="0"
     fit-margin-right="0"
     fit-margin-bottom="0" />
  <metadata
     id="metadata4157">
    <rdf:RDF>
      <cc:Work
         rdf:about="">
        <dc:format>image/svg+xml</dc:format>
        <dc:type
           rdf:resource="http://purl.org/dc/dcmitype/StillImage" />
        <dc:title></dc:title>
      </cc:Work>
    </rdf:RDF>
  </metadata>
  <g
     inkscape:label="Calque 1"
     inkscape:groupmode="layer"
     id="layer1"
     transform="translate(140.90536,718.00297)">
    <g
       id="g5371"
       transform="translate(6.3508394,-19.589382)"
       style="fill:#ffffff">
      <path
         inkscape:connector-curvature="0"
         d="m -105.8124,-8.3911671 c 8.208305,0 16.242806,-3.9676699 21.152408,-11.3078399 l 5.4555,-8.18369 c 2.7282,11.08485 12.2751,19.4915299 24.2027,19.4915299 14.036,0 25.3931,-11.3578299 25.3931,-25.3930299 0,14.036 11.3578,25.3930299 25.3929968,25.3930299 14.0352,0 25.3930002,-11.3578299 25.3930002,-25.3930299 0,14.036 11.3579,25.3930299 25.3931,25.3930299 14.0352,0 25.393,-11.3578299 25.393,-25.3930299 0,14.036 11.3578,25.3930299 25.393,25.3930299 14.035195,0 25.393095,-11.3578299 25.393095,-25.3930299 0,14.036 11.3578,25.3930299 25.393,25.3930299 14.0352,0 25.393,-11.3578299 25.393,-25.3930299 0,14.036 11.3578,25.3930299 25.3931,25.3930299 11.9529,0 21.4753,-8.4066799 24.2027,-19.4915299 l 5.4555,8.18369 c 4.885,7.34017 12.9449,11.3078399 21.1524,11.3078399 4.8358,0 9.7208,-1.38869 14.0606,-4.2652399 11.68,-7.78693 14.8295,-23.55838 7.0426,-35.21299 l -46.5208,-62.093903 -101.5721,0 0,-25.39305 25.393,0 c 14.036,0 25.393,-11.35782 25.393,-25.39301 l 0,-25.39303 c 0,-14.036 -11.3578,-25.39303 -25.393,-25.39303 l -152.3581952,0 c -14.0359968,0 -25.3929968,11.35782 -25.3929968,25.39303 l 0,25.39303 c 0,14.03599 11.3578,25.39301 25.3929968,25.39301 l 25.3930002,0 0,25.39305 -101.572097,0 -46.520808,62.093903 c -7.787,11.6554 -4.6128,27.42686 7.0426,35.21299 4.3152,2.8765499 9.2248,4.2652399 14.0606,4.2652399 z m 222.2136,-184.0994829 31.7413,0 0,19.04477 -25.393,0 0,12.69652 -6.3483,0 0,-31.74129 z m -44.437795,0 31.741295,0 0,31.74129 -31.741295,0 0,-31.74129 z m -38.0896,0 6.3483,0 0,12.69651 12.6965,0 0,-12.69651 6.3483,0 0,31.74129 -6.3483,0 0,-12.69652 -12.6965,0 0,12.69652 -6.3483,0 0,-31.74129 z m -38.0895002,31.74129 0,-6.34827 19.0448002,0 0,-6.34825 -19.0448002,0 0,-19.04477 25.3930002,0 0,6.34826 -19.0447002,0 0,6.34825 19.0447002,0 0,19.04478 -25.3930002,0 z m 50.7861002,25.39301 50.786,0 0,25.39305 -50.786,0 0,-25.39305 z m 228.537195,330.10943 -406.2885,0 c 0,-21.02861 17.061,-38.08955 38.089605,-38.08955 l 330.109395,0 c 21.0286,0 38.0895,17.06094 38.0895,38.08955 z M -55.001792,4.3053529 l -25.393,0 0,114.2686471 0,25.39302 304.716392,0 0,-25.39302 0,-114.2686471 -25.393,0 -253.930392,0 z m 0,114.2686471 0,-88.875607 76.179097,0 0,88.875607 -76.179097,0 z m 101.572197,0 0,-88.875607 152.358195,0 0,88.875607 -152.358195,0 z M -16.912192,67.787933 c 0,7.01801 -5.6785,12.69652 -12.6965,12.69652 -7.018,0 -12.6965,-5.67851 -12.6965,-12.69652 0,-7.018 5.6785,-12.69651 12.6965,-12.69651 7.018,0 12.6965,5.67851 12.6965,12.69651 z M 141.7942,-179.79414 l -19.0447,0 0,-6.34825 19.0447,0 0,6.34825 z m -63.482495,-6.34825 19.0447,0 0,19.04476 -19.0447,0 0,-19.04476 z"
         id="path4701"
         style="fill:#ffffff" />
      <g
         transform="matrix(8.8417716,0,0,8.8417716,1179.4893,-233.98442)"
         id="g4754"
         style="fill:#ffffff">
        <g
           style="display:none;fill:#ffffff"
           id="Layer_2"
           display="none">
          <rect
             style="display:inline;fill:#ffffff;stroke:#000000;stroke-width:0.25;stroke-linecap:round;stroke-linejoin:round;stroke-miterlimit:10"
             x="5"
             y="5"
             display="inline"
             stroke-miterlimit="10"
             width="40"
             height="40"
             id="rect4737" />
        </g>
        <g
           id="Layer_1"
           style="fill:#ffffff">
          <g
             id="g4740"
             style="fill:#ffffff">
            <path
               inkscape:connector-curvature="0"
               d="m 46.344,44.219 -42.708,0 c -1.18,0 -2.136,0.956 -2.136,2.136 0,1.179 0.956,2.135 2.136,2.135 l 42.708,0 c 1.18,0 2.136,-0.956 2.136,-2.135 -10e-4,-1.18 -0.957,-2.136 -2.136,-2.136 z"
               id="path4742"
               style="fill:#ffffff" />
            <path
               inkscape:connector-curvature="0"
               d="m 6.305,38.665 c -1.18,0 -2.136,0.956 -2.136,2.136 0,1.18 0.956,2.136 2.136,2.136 l 37.37,0 c 1.179,0 2.135,-0.956 2.135,-2.136 0,-1.18 -0.956,-2.136 -2.135,-2.136 l -0.534,0 0,-19.219 0.534,0 c 0.59,0 1.067,-0.478 1.067,-1.067 0,-0.589 -0.478,-1.067 -1.067,-1.067 l -37.37,0 c -0.59,0 -1.067,0.478 -1.067,1.067 0,0.589 0.478,1.067 1.067,1.067 l 0.534,0 0,19.219 -0.534,0 z m 32.565,-19.219 0,19.219 -6.406,0 0,-19.219 6.406,0 z m -10.678,0 0,19.219 -6.406,0 0,-19.219 6.406,0 z m -17.083,0 6.406,0 0,19.219 -6.406,0 0,-19.219 z"
               id="path4744"
               style="fill:#ffffff" />
            <path
               inkscape:connector-curvature="0"
               d="m 3.636,15.391 42.708,0 c 0.007,0 0.015,0 0.021,0 1.181,0 2.136,-0.956 2.136,-2.136 0,-0.938 -0.604,-1.733 -1.444,-2.021 L 25.867,1.699 c -0.557,-0.25 -1.194,-0.25 -1.752,0 L 2.76,11.308 c -0.919,0.414 -1.424,1.412 -1.212,2.396 0.211,0.984 1.081,1.687 2.088,1.687 z"
               id="path4746"
               style="fill:#ffffff" />
          </g>
        </g>
      </g>
      <g
         transform="matrix(0.4391074,0,0,0.4391074,519.67549,-289.81203)"
         id="g4764"
         style="fill:#ffffff">
        <path
           inkscape:connector-curvature="0"
           d="m 603,485.6 c -10.3,-10.3 -23.4,-19 -39.1,-25.9 -14.6,-6.4 -30.5,-9.6 -45.8,-12.7 -20,-4 -39.1,-7.9 -51.6,-18.3 -1.8,-1.5 -3.5,-3.2 -5,-5 -5,-6 -7.4,-13.7 -7.4,-23.3 0,-9.7 2.9,-17.5 9.1,-24.5 4.9,-5.5 12.2,-9.7 20.4,-12.1 4.7,-1.3 9.6,-2 14.7,-2 12.9,0 24.4,4.5 31.4,12.3 5.2,5.8 8.9,15.4 10.8,27.9 1.2,8.2 8.3,14.1 16.4,14.1 0.8,0 1.6,-0.1 2.5,-0.2 l 53.3,-8 c 9,-1.3 15.2,-9.7 14,-18.7 l 0,0 c -4.6,-32.5 -18.5,-58.6 -41.3,-77.6 -11.7,-9.7 -26.4,-17.2 -42.9,-22.1 l 0,-25.8 c 0,-9.2 -7.4,-16.6 -16.6,-16.6 l -42.1,0 -11.9,0 c -9.2,0 -16.6,7.4 -16.6,16.6 l 0,25.4 c -18.2,5.1 -34.1,13.4 -46.6,24.3 -26.3,23 -39.7,53.4 -39.7,90.2 0,10.4 1.2,20.3 3.5,29.7 2.3,9.4 5.7,18.2 10.2,26.5 9.3,17 22.7,30.5 39.9,40.1 24.3,13.6 47.9,19.6 73.9,25.4 17.2,3.9 36.1,9.5 45.9,21.4 4.5,5.6 6.9,13.8 6.9,24.3 0,13.1 -3.6,23.7 -11.1,32.2 -7,8 -17.2,13.3 -28.7,15.1 -2.7,0.4 -5.6,0.6 -8.4,0.6 -16.4,0 -31.7,-6.9 -40.7,-18.6 -4.2,-5.4 -10,-16.9 -13.4,-41 -1.2,-8.3 -8.3,-14.2 -16.4,-14.2 -0.9,0 -1.9,0.1 -2.9,0.2 l -52.1,9.1 c -8.4,1.5 -14.3,9 -13.7,17.5 1.8,25.7 8.7,48.1 20.3,66.4 11.8,18.6 26.3,32.4 43,41 9.5,4.9 19.6,8.8 30.3,11.7 l 0,21.4 c 0,9.2 7.4,16.6 16.6,16.6 l 54,0 c 9.2,0 16.6,-7.4 16.6,-16.6 l 0,-20.4 c 23.1,-6.4 43.3,-18.2 58.8,-34.5 22.7,-23.9 34.2,-53.8 34.2,-89.1 0,-16.1 -2.8,-31.4 -8.3,-45.4 -5.8,-14.3 -13.9,-26.9 -24.4,-37.4 z"
           id="path4766"
           style="fill:#ffffff" />
        <g
           id="g4768"
           style="fill:#ffffff">
          <g
             id="g4770"
             style="fill:#ffffff">
            <path
               inkscape:connector-curvature="0"
               d="m 901.8,257.8 39.4,-37.6 c 13.9,-13.3 8.2,-36.7 -10.2,-42.1 L 703.1,111.3 c -18.5,-5.4 -35.9,11.2 -31.3,29.9 l 56,230.7 c 4.5,18.7 27.6,25.5 41.6,12.2 l 32.7,-31.2 c 12,31 19.8,63.6 23.3,97.5 6.5,62.2 -2.3,125.4 -25.6,183 -19.6,48.5 -49.4,92.9 -86.8,129.7 -9.4,9.3 -10.1,24.3 -1.4,34.3 l 52.5,60.5 c 9.4,10.8 25.9,11.5 36.3,1.6 51.8,-49.9 93,-110.7 120,-177.2 31.3,-77.2 43.1,-162 34.4,-245.4 -6.7,-63.3 -24.5,-123.3 -53,-179.1 z"
               id="path4772"
               style="fill:#ffffff" />
          </g>
          <path
             inkscape:connector-curvature="0"
             d="m 95.2,718.9 -39.4,37.6 c -13.9,13.3 -8.2,36.7 10.2,42.1 l 227.9,66.8 c 18.5,5.4 35.9,-11.2 31.3,-29.9 l -56,-230.7 c -4.5,-18.7 -27.6,-25.5 -41.6,-12.2 l -32.7,31.2 c -12,-31 -19.8,-63.6 -23.3,-97.5 -6.5,-62.2 2.3,-125.4 25.6,-183 19.6,-48.5 49.4,-92.9 86.8,-129.7 9.4,-9.3 10.1,-24.3 1.4,-34.3 l -52.5,-60.5 c -9.4,-10.8 -25.9,-11.5 -36.3,-1.6 -51.8,49.9 -93,110.7 -120,177.2 -31.3,77.2 -43.1,162 -34.4,245.4 6.7,63.3 24.5,123.3 53,179.1 z"
             id="path4774"
             style="fill:#ffffff" />
        </g>
      </g>
      <g
         transform="matrix(19.346699,0,0,19.346699,518.50153,-746.07705)"
         id="g5231"
         style="fill:#ffffff">
        <g
           id="Layer_1-9"
           style="fill:#ffffff">
          <g
             id="g5216"
             style="fill:#ffffff">
            <path
               inkscape:connector-curvature="0"
               d="M 20.756,5.345 C 20.565,5.126 20.29,5 20,5 L 6.181,5 5.986,3.836 C 5.906,3.354 5.489,3 5,3 L 2.75,3 c -0.553,0 -1,0.447 -1,1 0,0.553 0.447,1 1,1 l 1.403,0 1.86,11.164 c 0.008,0.045 0.031,0.082 0.045,0.124 0.016,0.053 0.029,0.103 0.054,0.151 0.032,0.066 0.075,0.122 0.12,0.179 0.031,0.039 0.059,0.078 0.095,0.112 0.058,0.054 0.125,0.092 0.193,0.13 0.038,0.021 0.071,0.049 0.112,0.065 C 6.748,16.972 6.87,17 6.999,17 7,17 18,17 18,17 c 0.553,0 1,-0.447 1,-1 0,-0.553 -0.447,-1 -1,-1 L 7.847,15 7.681,14 19,14 c 0.498,0 0.92,-0.366 0.99,-0.858 l 1,-7 C 21.031,5.854 20.945,5.563 20.756,5.345 Z M 18.847,7 18.562,9 15,9 15,7 18.847,7 Z M 14,7 l 0,2 -3,0 0,-2 3,0 z m 0,3 0,2 -3,0 0,-2 3,0 z M 10,7 10,9 7,9 C 6.947,9 6.899,9.015 6.852,9.03 L 6.514,7 10,7 Z M 7.014,10 10,10 10,12 7.347,12 7.014,10 Z M 15,12 15,10 18.418,10 18.133,12 15,12 Z"
               id="path5218"
               style="fill:#ffffff" />
            <circle
               cx="8.5"
               cy="19.5"
               r="1.5"
               id="circle5220"
               style="fill:#ffffff" />
            <circle
               cx="17.5"
               cy="19.5"
               r="1.5"
               id="circle5222"
               style="fill:#ffffff" />
          </g>
        </g>
        <g
           style="display:none;fill:#ffffff"
           id="nyt_x5F_exporter_x5F_info"
           display="none" />
      </g>
    </g>
  </g>
  <style
     id="style4"
     type="text/css"><![CDATA[
	.st0{fill:#52752F;}
	.st1{fill:#212121;}
	.st2{fill:url(#SVGID_2_);}
	.st3{fill:url(#SVGID_3_);}
	.st4{fill:url(#SVGID_4_);}
	.st5{fill:url(#SVGID_5_);}
	.st6{fill:url(#SVGID_6_);}
	.st7{fill:url(#SVGID_7_);}
	.st8{fill:url(#SVGID_8_);}
	.st9{fill:url(#SVGID_9_);}
	.st10{opacity:0.5;}
	.st11{opacity:0.8;}
	.st12{fill:#636363;}
	.st13{fill:url(#SVGID_10_);}
	.st14{fill:url(#SVGID_11_);}
	.st15{fill:url(#SVGID_13_);}
	.st16{fill:url(#SVGID_14_);}
	.st17{fill:url(#SVGID_16_);}
	.st18{fill:url(#SVGID_17_);}
	.st19{fill:url(#SVGID_18_);}
	.st20{fill:url(#SVGID_19_);}
	.st21{fill:url(#SVGID_20_);}
	.st22{fill:url(#SVGID_21_);}
	.st23{fill:url(#SVGID_22_);}
	.st24{fill:url(#SVGID_23_);}
	.st25{fill:url(#SVGID_24_);}
	.st26{fill:url(#SVGID_25_);}
	.st27{fill:url(#SVGID_27_);}
	.st28{fill:url(#SVGID_28_);}
	.st29{opacity:0.5;fill:url(#SVGID_12_);}
	.st30{opacity:0.5;fill:url(#SVGID_26_);}
	.st31{fill-rule:evenodd;clip-rule:evenodd;fill:url(#SVGID_15_);}
	.st32{fill-rule:evenodd;clip-rule:evenodd;fill:url(#SVGID_1_);}
]]></style>
</svg>
