<?xml version="1.0" encoding="UTF-8" standalone="no"?>
<!-- Generator: Adobe Illustrator 16.0.0, SVG Export Plug-In . SVG Version: 6.00 Build 0)  -->

<svg
   xmlns:dc="http://purl.org/dc/elements/1.1/"
   xmlns:cc="http://creativecommons.org/ns#"
   xmlns:rdf="http://www.w3.org/1999/02/22-rdf-syntax-ns#"
   xmlns:svg="http://www.w3.org/2000/svg"
   xmlns="http://www.w3.org/2000/svg"
   xmlns:sodipodi="http://sodipodi.sourceforge.net/DTD/sodipodi-0.dtd"
   xmlns:inkscape="http://www.inkscape.org/namespaces/inkscape"
   version="1.1"
   x="0px"
   y="0px"
   width="110"
   height="110"
   viewBox="0 0 110 110"
   xml:space="preserve"
   id="svg2"
   inkscape:version="0.91 r13725"
   sodipodi:docname="elastic-bg.svg"><metadata
     id="metadata586"><rdf:RDF><cc:Work
         rdf:about=""><dc:format>image/svg+xml</dc:format><dc:type
           rdf:resource="http://purl.org/dc/dcmitype/StillImage" /><dc:title /></cc:Work></rdf:RDF></metadata><defs
     id="defs584" /><sodipodi:namedview
     pagecolor="#ffffff"
     bordercolor="#666666"
     borderopacity="1"
     objecttolerance="10"
     gridtolerance="10"
     guidetolerance="10"
     inkscape:pageopacity="0"
     inkscape:pageshadow="2"
     inkscape:window-width="1280"
     inkscape:window-height="1002"
     id="namedview582"
     showgrid="false"
     fit-margin-top="0"
     fit-margin-left="0"
     fit-margin-right="0"
     fit-margin-bottom="0"
     inkscape:zoom="5.0857144"
     inkscape:cx="59.24043"
     inkscape:cy="52.319418"
     inkscape:window-x="1272"
     inkscape:window-y="-8"
     inkscape:window-maximized="1"
     inkscape:current-layer="svg2" /><style
     type="text/css"
     id="style4"><![CDATA[
	.st0{fill:#52752F;}
	.st1{fill:#212121;}
	.st2{fill:url(#SVGID_2_);}
	.st3{fill:url(#SVGID_3_);}
	.st4{fill:url(#SVGID_4_);}
	.st5{fill:url(#SVGID_5_);}
	.st6{fill:url(#SVGID_6_);}
	.st7{fill:url(#SVGID_7_);}
	.st8{fill:url(#SVGID_8_);}
	.st9{fill:url(#SVGID_9_);}
	.st10{opacity:0.5;}
	.st11{opacity:0.8;}
	.st12{fill:#636363;}
	.st13{fill:url(#SVGID_10_);}
	.st14{fill:url(#SVGID_11_);}
	.st15{fill:url(#SVGID_13_);}
	.st16{fill:url(#SVGID_14_);}
	.st17{fill:url(#SVGID_16_);}
	.st18{fill:url(#SVGID_17_);}
	.st19{fill:url(#SVGID_18_);}
	.st20{fill:url(#SVGID_19_);}
	.st21{fill:url(#SVGID_20_);}
	.st22{fill:url(#SVGID_21_);}
	.st23{fill:url(#SVGID_22_);}
	.st24{fill:url(#SVGID_23_);}
	.st25{fill:url(#SVGID_24_);}
	.st26{fill:url(#SVGID_25_);}
	.st27{fill:url(#SVGID_27_);}
	.st28{fill:url(#SVGID_28_);}
	.st29{opacity:0.5;fill:url(#SVGID_12_);}
	.st30{opacity:0.5;fill:url(#SVGID_26_);}
	.st31{fill-rule:evenodd;clip-rule:evenodd;fill:url(#SVGID_15_);}
	.st32{fill-rule:evenodd;clip-rule:evenodd;fill:url(#SVGID_1_);}
]]></style><g
     id="Layer_1"
     style="fill:#ffffff;fill-opacity:0.15686275"
     transform="translate(-15,-15.005)"><g
       id="g7"
       style="fill:#ffffff;fill-opacity:0.15686275"><g
         id="g9"
         style="fill:#ffffff;fill-opacity:0.15686275"><linearGradient
           id="SVGID_1_"
           gradientUnits="userSpaceOnUse"
           x1="23.626499"
           y1="47.257801"
           x2="90.676498"
           y2="130.73289"><stop
             offset="0"
             style="stop-color:#4C4C4E"
             id="stop12" /><stop
             offset="1"
             style="stop-color:#040405"
             id="stop14" /></linearGradient><path
           class="st32"
           d="m 45.68,43.98 0,-6.94 -7.46,0 c 0,0 -5.4,0 -5.4,7.09 0,7.09 0,16.42 0,16.42 0,0 -0.07,4.54 -4.5,4.54 l 0,6.45 1.99,0 c 0,0 2.44,-0.15 2.44,2.93 0,3.07 0,42.15 0,42.15 0,0 -0.23,7.05 6.3,7.05 6.53,0 57.3,0 57.3,0 0,0 5.81,-0.38 5.81,-7.05 0,-6.67 0,-7.5 0,-7.5 0,0 -0.04,-4.12 4.54,-4.12 l 0,-6.23 c 0,0 -4.46,0.08 -4.46,-4.65 0,-4.72 0,-6.56 0,-6.56 0,0 0.15,-7.54 -5.96,-7.54 -6.11,0 -7.05,0 -7.05,0 l 0,7.2 3.56,0 c 0,0 2.62,0.11 2.62,3.45 0,3.34 0,6.97 0,6.97 0,0 0.45,4.24 5.33,4.24 0,0 -5.4,0.3 -5.4,5.25 0,4.95 0,5.81 0,5.81 0,0 0.3,3.75 -3.04,3.75 -3.34,0 -49.95,0 -49.95,0 0,0 -2.78,-0.08 -2.78,-4.01 0,-3.93 0,-39.11 0,-39.11 0,0 0.08,-5.36 -5.55,-5.36 0,0 5.59,-0.38 5.59,-4.69 0,-4.31 0,-16.54 0,-16.54 0,0 0.3,-3.04 3,-3.04 2.7,0 3.07,0.04 3.07,0.04 z"
           id="path16"
           style="clip-rule:evenodd;fill:#ffffff;fill-rule:evenodd;fill-opacity:0.15686275"
           inkscape:connector-curvature="0" /></g><g
         id="g18"
         style="fill:#ffffff;fill-opacity:0.15686275"><g
           id="g20"
           style="fill:#ffffff;fill-opacity:0.15686275"><linearGradient
             id="SVGID_2_"
             gradientUnits="userSpaceOnUse"
             x1="52.963902"
             y1="83.421898"
             x2="64.889198"
             y2="90.397102"><stop
               offset="0"
               style="stop-color:#5A5B5D"
               id="stop23" /><stop
               offset="0.5539"
               style="stop-color:#2D2D2E"
               id="stop25" /><stop
               offset="0.8342"
               style="stop-color:#1B1B1B"
               id="stop27" /><stop
               offset="0.8829"
               style="stop-color:#222222"
               id="stop29" /><stop
               offset="0.9541"
               style="stop-color:#343436"
               id="stop31" /><stop
               offset="1"
               style="stop-color:#444446"
               id="stop33" /></linearGradient><path
             class="st2"
             d="m 54.67,107.6 c 0,0 -1.1,1.26 -6.89,-2.05 -5.79,-3.32 -4.92,-4.72 -4.92,-4.72 L 63.6,64.63 75.41,71.4 54.67,107.6 Z"
             id="path35"
             style="fill:#ffffff;fill-opacity:0.15686275"
             inkscape:connector-curvature="0" /></g></g><linearGradient
         id="SVGID_9_"
         gradientUnits="userSpaceOnUse"
         x1="58.484402"
         y1="25.690399"
         x2="104.722"
         y2="71.928101"><stop
           offset="0"
           style="stop-color:#5E8830"
           id="stop126" /><stop
           offset="0.4614"
           style="stop-color:#6B8F3F"
           id="stop128" /><stop
           offset="0.85"
           style="stop-color:#537C26"
           id="stop130" /><stop
           offset="0.8795"
           style="stop-color:#598329"
           id="stop132" /><stop
           offset="0.9226"
           style="stop-color:#699730"
           id="stop134" /><stop
           offset="0.97"
           style="stop-color:#80B43B"
           id="stop136" /></linearGradient><radialGradient
         id="SVGID_10_"
         cx="80.068802"
         cy="47.5"
         r="31.162399"
         gradientUnits="userSpaceOnUse"><stop
           offset="0.6308"
           style="stop-color:#80B43B"
           id="stop141" /><stop
           offset="0.7689"
           style="stop-color:#80B43B;stop-opacity:0"
           id="stop143" /></radialGradient><path
         class="st13"
         d="m 80.07,16.34 c -17.21,0 -31.16,13.95 -31.16,31.16 0,17.21 13.95,31.16 31.16,31.16 17.21,0 31.16,-13.95 31.16,-31.16 0,-17.21 -13.95,-31.16 -31.16,-31.16 z m 0.45,54 c -12.43,0 -22.5,-10.07 -22.5,-22.5 0,-12.43 10.07,-22.5 22.5,-22.5 12.43,0 22.5,10.07 22.5,22.5 0,12.42 -10.07,22.5 -22.5,22.5 z"
         id="path145"
         style="fill:#ffffff;fill-opacity:0.15686275"
         inkscape:connector-curvature="0" /><linearGradient
         id="SVGID_11_"
         gradientUnits="userSpaceOnUse"
         x1="60.5322"
         y1="36.814499"
         x2="100.9292"
         y2="59.0947"><stop
           offset="6.796080e-03"
           style="stop-color:#40692A"
           id="stop148" /><stop
           offset="0.1044"
           style="stop-color:#49732C"
           id="stop150" /><stop
           offset="0.4857"
           style="stop-color:#679634"
           id="stop152" /><stop
           offset="0.7979"
           style="stop-color:#79AC39"
           id="stop154" /><stop
           offset="1"
           style="stop-color:#80B43B"
           id="stop156" /></linearGradient><linearGradient
         id="SVGID_12_"
         gradientUnits="userSpaceOnUse"
         x1="63.194302"
         y1="30.512699"
         x2="97.962402"
         y2="65.280701"><stop
           offset="4.823020e-03"
           style="stop-color:#768290"
           id="stop161" /><stop
           offset="0.0351"
           style="stop-color:#8190A2"
           id="stop163" /><stop
           offset="0.0926"
           style="stop-color:#93A6BD"
           id="stop165" /><stop
           offset="0.1552"
           style="stop-color:#A1B7D2"
           id="stop167" /><stop
           offset="0.2243"
           style="stop-color:#ABC4E1"
           id="stop169" /><stop
           offset="0.3053"
           style="stop-color:#B0CBEA"
           id="stop171" /><stop
           offset="0.4267"
           style="stop-color:#B2CDED"
           id="stop173" /><stop
           offset="0.7762"
           style="stop-color:#D3DFE4"
           id="stop175" /><stop
           offset="0.8252"
           style="stop-color:#CFDBE0"
           id="stop177" /><stop
           offset="0.8749"
           style="stop-color:#C5CFD4"
           id="stop179" /><stop
           offset="0.9249"
           style="stop-color:#B2BABF"
           id="stop181" /><stop
           offset="0.9748"
           style="stop-color:#999EA3"
           id="stop183" /><stop
           offset="1"
           style="stop-color:#8A8D92"
           id="stop185" /></linearGradient><g
         id="g189"
         style="fill:#ffffff;fill-opacity:0.15686275"><radialGradient
           id="SVGID_13_"
           cx="90.868698"
           cy="40.862801"
           r="16.6387"
           gradientUnits="userSpaceOnUse"><stop
             offset="0"
             style="stop-color:#FFFFFF"
             id="stop192" /><stop
             offset="1"
             style="stop-color:#FFFFFF;stop-opacity:0"
             id="stop194" /></radialGradient><path
           class="st15"
           d="m 80.74,36.14 c 6.59,0 11.93,5.34 11.93,11.92 0,1.08 -0.15,2.13 -0.42,3.13 l 7.63,2.77 c 0.57,-1.86 0.88,-3.84 0.88,-5.89 0,-11.06 -8.97,-20.02 -20.03,-20.02 -0.15,0 -0.3,0 -0.45,0 l 0,8.11 c 0.16,-0.02 0.31,-0.02 0.46,-0.02 z"
           id="path196"
           style="fill:#ffffff;fill-opacity:0.15686275"
           inkscape:connector-curvature="0" /></g><g
         class="st11"
         id="g198"
         style="opacity:0.8;fill:#ffffff;fill-opacity:0.15686275"><radialGradient
           id="SVGID_14_"
           cx="67.328102"
           cy="58.0322"
           r="5.6079001"
           gradientUnits="userSpaceOnUse"><stop
             offset="0"
             style="stop-color:#FFFFFF"
             id="stop201" /><stop
             offset="1"
             style="stop-color:#FFFFFF;stop-opacity:0"
             id="stop203" /></radialGradient><path
           class="st16"
           d="m 71.33,60.18 c -2.74,0 -4.96,-2.22 -4.96,-4.96 0,-0.68 0.14,-1.33 0.38,-1.91 l -3.69,-1.45 c -0.46,1.07 -0.71,2.25 -0.71,3.49 0,4.89 3.97,8.86 8.86,8.86 0.37,0 0.74,-0.03 1.1,-0.07 l 0,-4.05 c -0.32,0.06 -0.64,0.09 -0.98,0.09 z"
           id="path205"
           style="fill:#ffffff;fill-opacity:0.15686275"
           inkscape:connector-curvature="0" /></g></g></g></svg>