<?xml version="1.0" encoding="UTF-8" standalone="no"?>
<!-- Generator: Adobe Illustrator 16.0.0, SVG Export Plug-In . SVG Version: 6.00 Build 0)  -->

<svg
   xmlns:dc="http://purl.org/dc/elements/1.1/"
   xmlns:cc="http://creativecommons.org/ns#"
   xmlns:rdf="http://www.w3.org/1999/02/22-rdf-syntax-ns#"
   xmlns:svg="http://www.w3.org/2000/svg"
   xmlns="http://www.w3.org/2000/svg"
   xmlns:sodipodi="http://sodipodi.sourceforge.net/DTD/sodipodi-0.dtd"
   xmlns:inkscape="http://www.inkscape.org/namespaces/inkscape"
   version="1.1"
   id="Layer_1"
   x="0px"
   y="0px"
   width="104.844"
   height="109"
   viewBox="0 0 104.844 109"
   enable-background="new 0 0 126 126"
   xml:space="preserve"
   inkscape:version="0.91 r13725"
   sodipodi:docname="sql.svg"><metadata
     id="metadata13"><rdf:RDF><cc:Work
         rdf:about=""><dc:format>image/svg+xml</dc:format><dc:type
           rdf:resource="http://purl.org/dc/dcmitype/StillImage" /><dc:title></dc:title></cc:Work></rdf:RDF></metadata><defs
     id="defs11" /><sodipodi:namedview
     pagecolor="#ffffff"
     bordercolor="#666666"
     borderopacity="1"
     objecttolerance="10"
     gridtolerance="10"
     guidetolerance="10"
     inkscape:pageopacity="0"
     inkscape:pageshadow="2"
     inkscape:window-width="1280"
     inkscape:window-height="1002"
     id="namedview9"
     showgrid="false"
     fit-margin-top="0"
     fit-margin-left="0"
     fit-margin-right="0"
     fit-margin-bottom="0"
     inkscape:zoom="1.8730159"
     inkscape:cx="52.952"
     inkscape:cy="54.32"
     inkscape:window-x="1272"
     inkscape:window-y="-8"
     inkscape:window-maximized="1"
     inkscape:current-layer="Layer_1" /><path
     d="m 64.41,99.589 c 0.143,0.009 0.287,0.022 0.434,0.022 l 33,0 c 3.859,0 7,-3.141 7,-7 l 0,-76.5 c 0,-3.859 -3.141,-7 -7,-7 l -33,0 c -0.146,0 -0.291,0.013 -0.434,0.021 L 64.41,0 0,8.596 0,100.182 64.41,109 l 0,-9.411 z m 0,-86.435 c 0.143,-0.021 0.285,-0.043 0.434,-0.043 l 33,0 c 1.654,0 3,1.346 3,3 l 0,76.5 c 0,1.654 -1.346,3 -3,3 l -33,0 c -0.148,0 -0.291,-0.023 -0.434,-0.045 l 0,-82.412 z M 10.398,61.042 C 8.222,60.984 6.097,60.323 5.043,59.662 L 5.9,55.875 c 1.143,0.653 2.912,1.32 4.754,1.352 2.002,0.034 3.07,-0.841 3.07,-2.197 0,-1.293 -0.924,-2.039 -3.24,-2.941 -3.16,-1.195 -5.191,-3.068 -5.191,-6.025 0,-3.47 2.678,-6.195 7.191,-6.314 2.195,-0.059 3.828,0.395 5.002,0.926 l -0.998,3.84 c -0.791,-0.393 -2.186,-0.956 -4.09,-0.924 -1.887,0.031 -2.793,0.962 -2.793,2.029 0,1.311 1.078,1.883 3.57,2.881 3.457,1.35 5.105,3.279 5.105,6.24 10e-4,3.519 -2.554,6.441 -7.882,6.3 z M 39.39,65.29 c -3.115,-1.021 -5.678,-2.041 -8.521,-3.349 -0.471,-0.205 -0.973,-0.314 -1.471,-0.36 -4.688,-0.442 -8.975,-4.062 -8.975,-10.953 0,-6.327 3.859,-11.19 10.068,-11.354 6.559,-0.173 10.242,4.859 10.242,10.907 0,5.03 -2.322,8.536 -5.199,9.778 l 0,0.13 c 1.676,0.527 3.563,0.966 5.299,1.37 L 39.39,65.29 Z m 19.196,-3.305 -14.531,-0.376 0,-22.328 5.17,-0.133 0,18.303 9.361,0.152 0,4.382 z"
     id="path3"
     style="fill:#ffffff;fill-opacity:0.10686275"
     inkscape:connector-curvature="0" /><path
     d="m 30.367,43.159 c -3.234,0.056 -5.076,3.319 -5.076,7.313 -0.033,4.057 1.873,7.196 5.043,7.252 3.252,0.057 5.17,-3.061 5.17,-7.347 0,-3.993 -1.854,-7.274 -5.137,-7.218 z"
     id="path5"
     style="fill:#ffffff;fill-opacity:0.10686275"
     inkscape:connector-curvature="0" /><path
     d="m 80.842,72.644 c 7.762,0 13.836,-2.773 13.836,-6.313 l 0,-3.984 c 0,-0.566 -0.164,-1.141 -0.494,-1.705 L 94.17,60.62 c 0.322,-0.542 0.508,-1.112 0.508,-1.707 l 0,-3.983 c 0,-0.567 -0.164,-1.142 -0.494,-1.707 l -0.043,-0.072 c 0.342,-0.558 0.537,-1.146 0.537,-1.761 l 0,-3.983 c 0,-0.539 -0.15,-1.088 -0.447,-1.631 l -0.035,-0.063 c 0.088,-0.242 0.15,-0.49 0.15,-0.753 0,-3.219 -6.957,-4.957 -13.504,-4.957 -6.541,0 -13.496,1.738 -13.496,4.957 0,0.263 0.061,0.512 0.15,0.754 l -0.035,0.063 c -0.299,0.543 -0.447,1.092 -0.447,1.631 l 0,3.983 c 0,0.613 0.193,1.202 0.535,1.759 l -0.045,0.076 c -0.326,0.566 -0.49,1.139 -0.49,1.705 l 0,3.983 c 0,0.594 0.182,1.163 0.506,1.705 l -0.016,0.025 c -0.326,0.565 -0.49,1.14 -0.49,1.704 l 0,3.984 c 0,3.539 6.074,6.312 13.828,6.312 z M 68.494,48.074 c 2.219,1.881 7.365,2.855 12.348,2.855 4.99,0 10.133,-0.975 12.354,-2.856 l 0,3.316 c 0,2.285 -5.07,4.831 -12.354,4.831 -7.277,0 -12.348,-2.546 -12.348,-4.831 l 0,-3.315 z m 0,7.092 c 2.271,2.079 6.943,3.407 12.348,3.407 5.412,0 10.084,-1.328 12.354,-3.409 l 0,3.749 c 0,2.285 -5.07,4.832 -12.354,4.832 -7.277,0 -12.348,-2.547 -12.348,-4.832 l 0,-3.747 z m 0,7.418 c 2.271,2.08 6.943,3.408 12.348,3.408 5.412,0 10.084,-1.328 12.354,-3.409 l 0,3.749 c 0,2.285 -5.07,4.831 -12.354,4.831 -7.277,0 -12.348,-2.546 -12.348,-4.831 l 0,-3.748 z"
     id="path7"
     style="fill:#ffffff;fill-opacity:0.10686275"
     inkscape:connector-curvature="0" /></svg>